solid Default
  facet normal -1.000000e+00 -0.000000e+00 -0.000000e+00
    outer loop
      vertex -1.000000e+01 -1.000000e+01 0.000000e+00
      vertex -1.000000e+01 -1.000000e+01 3.000000e+01
      vertex -1.000000e+01 1.000000e+01 0.000000e+00
    endloop
  endfacet
  facet normal -1.000000e+00 0.000000e+00 0.000000e+00
    outer loop
      vertex -1.000000e+01 1.000000e+01 0.000000e+00
      vertex -1.000000e+01 -1.000000e+01 3.000000e+01
      vertex -1.000000e+01 1.000000e+01 3.000000e+01
    endloop
  endfacet
  facet normal 0.000000e+00 -1.000000e+00 0.000000e+00
    outer loop
      vertex -3.535534e+00 -1.000000e+01 1.446447e+01
      vertex -1.000000e+01 -1.000000e+01 0.000000e+00
      vertex 1.000000e+01 -1.000000e+01 0.000000e+00
    endloop
  endfacet
  facet normal 0.000000e+00 -1.000000e+00 0.000000e+00
    outer loop
      vertex -1.000000e+01 -1.000000e+01 3.000000e+01
      vertex -1.000000e+01 -1.000000e+01 0.000000e+00
      vertex -4.619398e+00 -1.000000e+01 1.608658e+01
    endloop
  endfacet
  facet normal 0.000000e+00 -1.000000e+00 0.000000e+00
    outer loop
      vertex -1.913417e+00 -1.000000e+01 1.338060e+01
      vertex -3.535534e+00 -1.000000e+01 1.446447e+01
      vertex 1.000000e+01 -1.000000e+01 0.000000e+00
    endloop
  endfacet
  facet normal 0.000000e+00 -1.000000e+00 0.000000e+00
    outer loop
      vertex -1.000000e+01 -1.000000e+01 3.000000e+01
      vertex -4.619398e+00 -1.000000e+01 1.608658e+01
      vertex -5.000000e+00 -1.000000e+01 1.800000e+01
    endloop
  endfacet
  facet normal 0.000000e+00 -1.000000e+00 0.000000e+00
    outer loop
      vertex -1.913417e+00 -1.000000e+01 2.261940e+01
      vertex 0.000000e+00 -1.000000e+01 2.300000e+01
      vertex 1.000000e+01 -1.000000e+01 3.000000e+01
    endloop
  endfacet
  facet normal 0.000000e+00 -1.000000e+00 0.000000e+00
    outer loop
      vertex -1.000000e+01 -1.000000e+01 3.000000e+01
      vertex -5.000000e+00 -1.000000e+01 1.800000e+01
      vertex -4.619398e+00 -1.000000e+01 1.991342e+01
    endloop
  endfacet
  facet normal 0.000000e+00 -1.000000e+00 0.000000e+00
    outer loop
      vertex -1.913417e+00 -1.000000e+01 2.261940e+01
      vertex -1.000000e+01 -1.000000e+01 3.000000e+01
      vertex -3.535534e+00 -1.000000e+01 2.153553e+01
    endloop
  endfacet
  facet normal 0.000000e+00 -1.000000e+00 0.000000e+00
    outer loop
      vertex 5.000000e+00 -1.000000e+01 1.800000e+01
      vertex 4.619398e+00 -1.000000e+01 1.608658e+01
      vertex 1.000000e+01 -1.000000e+01 0.000000e+00
    endloop
  endfacet
  facet normal 0.000000e+00 -1.000000e+00 0.000000e+00
    outer loop
      vertex 1.000000e+01 -1.000000e+01 3.000000e+01
      vertex -1.000000e+01 -1.000000e+01 3.000000e+01
      vertex -1.913417e+00 -1.000000e+01 2.261940e+01
    endloop
  endfacet
  facet normal 0.000000e+00 -1.000000e+00 0.000000e+00
    outer loop
      vertex 1.913417e+00 -1.000000e+01 1.338060e+01
      vertex 0.000000e+00 -1.000000e+01 1.300000e+01
      vertex 1.000000e+01 -1.000000e+01 0.000000e+00
    endloop
  endfacet
  facet normal 0.000000e+00 -1.000000e+00 0.000000e+00
    outer loop
      vertex 1.000000e+01 -1.000000e+01 3.000000e+01
      vertex 0.000000e+00 -1.000000e+01 2.300000e+01
      vertex 1.913417e+00 -1.000000e+01 2.261940e+01
    endloop
  endfacet
  facet normal 0.000000e+00 -1.000000e+00 0.000000e+00
    outer loop
      vertex 1.000000e+01 -1.000000e+01 3.000000e+01
      vertex 1.913417e+00 -1.000000e+01 2.261940e+01
      vertex 3.535534e+00 -1.000000e+01 2.153553e+01
    endloop
  endfacet
  facet normal 0.000000e+00 -1.000000e+00 0.000000e+00
    outer loop
      vertex 1.000000e+01 -1.000000e+01 3.000000e+01
      vertex 4.619398e+00 -1.000000e+01 1.991342e+01
      vertex 1.000000e+01 -1.000000e+01 0.000000e+00
    endloop
  endfacet
  facet normal 0.000000e+00 -1.000000e+00 0.000000e+00
    outer loop
      vertex 1.000000e+01 -1.000000e+01 3.000000e+01
      vertex 3.535534e+00 -1.000000e+01 2.153553e+01
      vertex 4.619398e+00 -1.000000e+01 1.991342e+01
    endloop
  endfacet
  facet normal 0.000000e+00 -1.000000e+00 0.000000e+00
    outer loop
      vertex 4.619398e+00 -1.000000e+01 1.991342e+01
      vertex 5.000000e+00 -1.000000e+01 1.800000e+01
      vertex 1.000000e+01 -1.000000e+01 0.000000e+00
    endloop
  endfacet
  facet normal 0.000000e+00 -1.000000e+00 0.000000e+00
    outer loop
      vertex 3.535534e+00 -1.000000e+01 1.446447e+01
      vertex 1.913417e+00 -1.000000e+01 1.338060e+01
      vertex 1.000000e+01 -1.000000e+01 0.000000e+00
    endloop
  endfacet
  facet normal 0.000000e+00 -1.000000e+00 0.000000e+00
    outer loop
      vertex -4.619398e+00 -1.000000e+01 1.608658e+01
      vertex -1.000000e+01 -1.000000e+01 0.000000e+00
      vertex -3.535534e+00 -1.000000e+01 1.446447e+01
    endloop
  endfacet
  facet normal 0.000000e+00 -1.000000e+00 0.000000e+00
    outer loop
      vertex 0.000000e+00 -1.000000e+01 1.300000e+01
      vertex -1.913417e+00 -1.000000e+01 1.338060e+01
      vertex 1.000000e+01 -1.000000e+01 0.000000e+00
    endloop
  endfacet
  facet normal 0.000000e+00 -1.000000e+00 0.000000e+00
    outer loop
      vertex -4.619398e+00 -1.000000e+01 1.991342e+01
      vertex -3.535534e+00 -1.000000e+01 2.153553e+01
      vertex -1.000000e+01 -1.000000e+01 3.000000e+01
    endloop
  endfacet
  facet normal 0.000000e+00 -1.000000e+00 0.000000e+00
    outer loop
      vertex 4.619398e+00 -1.000000e+01 1.608658e+01
      vertex 3.535534e+00 -1.000000e+01 1.446447e+01
      vertex 1.000000e+01 -1.000000e+01 0.000000e+00
    endloop
  endfacet
  facet normal -0.000000e+00 -0.000000e+00 -1.000000e+00
    outer loop
      vertex -1.000000e+01 -1.000000e+01 0.000000e+00
      vertex -1.000000e+01 1.000000e+01 0.000000e+00
      vertex 1.000000e+01 -1.000000e+01 0.000000e+00
    endloop
  endfacet
  facet normal 0.000000e+00 0.000000e+00 -1.000000e+00
    outer loop
      vertex 1.000000e+01 -1.000000e+01 0.000000e+00
      vertex -1.000000e+01 1.000000e+01 0.000000e+00
      vertex 1.000000e+01 1.000000e+01 0.000000e+00
    endloop
  endfacet
  facet normal 0.000000e+00 1.000000e+00 0.000000e+00
    outer loop
      vertex 1.913417e+00 1.000000e+01 2.261940e+01
      vertex -1.000000e+01 1.000000e+01 3.000000e+01
      vertex 1.000000e+01 1.000000e+01 3.000000e+01
    endloop
  endfacet
  facet normal 0.000000e+00 1.000000e+00 0.000000e+00
    outer loop
      vertex -1.000000e+01 1.000000e+01 0.000000e+00
      vertex -1.000000e+01 1.000000e+01 3.000000e+01
      vertex -5.000000e+00 1.000000e+01 1.800000e+01
    endloop
  endfacet
  facet normal 0.000000e+00 1.000000e+00 0.000000e+00
    outer loop
      vertex -1.000000e+01 1.000000e+01 0.000000e+00
      vertex -5.000000e+00 1.000000e+01 1.800000e+01
      vertex -4.619398e+00 1.000000e+01 1.608658e+01
    endloop
  endfacet
  facet normal 0.000000e+00 1.000000e+00 0.000000e+00
    outer loop
      vertex -1.000000e+01 1.000000e+01 0.000000e+00
      vertex -4.619398e+00 1.000000e+01 1.608658e+01
      vertex -3.535534e+00 1.000000e+01 1.446447e+01
    endloop
  endfacet
  facet normal 0.000000e+00 1.000000e+00 0.000000e+00
    outer loop
      vertex -1.000000e+01 1.000000e+01 0.000000e+00
      vertex -3.535534e+00 1.000000e+01 1.446447e+01
      vertex 1.000000e+01 1.000000e+01 0.000000e+00
    endloop
  endfacet
  facet normal 0.000000e+00 1.000000e+00 0.000000e+00
    outer loop
      vertex 0.000000e+00 1.000000e+01 1.300000e+01
      vertex 1.000000e+01 1.000000e+01 0.000000e+00
      vertex -1.913417e+00 1.000000e+01 1.338060e+01
    endloop
  endfacet
  facet normal 0.000000e+00 1.000000e+00 0.000000e+00
    outer loop
      vertex 1.913417e+00 1.000000e+01 1.338060e+01
      vertex 1.000000e+01 1.000000e+01 0.000000e+00
      vertex 0.000000e+00 1.000000e+01 1.300000e+01
    endloop
  endfacet
  facet normal 0.000000e+00 1.000000e+00 0.000000e+00
    outer loop
      vertex 5.000000e+00 1.000000e+01 1.800000e+01
      vertex 1.000000e+01 1.000000e+01 3.000000e+01
      vertex 4.619398e+00 1.000000e+01 1.608658e+01
    endloop
  endfacet
  facet normal 0.000000e+00 1.000000e+00 0.000000e+00
    outer loop
      vertex 1.000000e+01 1.000000e+01 0.000000e+00
      vertex 1.913417e+00 1.000000e+01 1.338060e+01
      vertex 3.535534e+00 1.000000e+01 1.446447e+01
    endloop
  endfacet
  facet normal 0.000000e+00 1.000000e+00 0.000000e+00
    outer loop
      vertex 1.000000e+01 1.000000e+01 0.000000e+00
      vertex 3.535534e+00 1.000000e+01 1.446447e+01
      vertex 4.619398e+00 1.000000e+01 1.608658e+01
    endloop
  endfacet
  facet normal 0.000000e+00 1.000000e+00 0.000000e+00
    outer loop
      vertex 1.000000e+01 1.000000e+01 0.000000e+00
      vertex 4.619398e+00 1.000000e+01 1.608658e+01
      vertex 1.000000e+01 1.000000e+01 3.000000e+01
    endloop
  endfacet
  facet normal 0.000000e+00 1.000000e+00 0.000000e+00
    outer loop
      vertex 4.619398e+00 1.000000e+01 1.991342e+01
      vertex 1.000000e+01 1.000000e+01 3.000000e+01
      vertex 5.000000e+00 1.000000e+01 1.800000e+01
    endloop
  endfacet
  facet normal 0.000000e+00 1.000000e+00 0.000000e+00
    outer loop
      vertex -4.619398e+00 1.000000e+01 1.991342e+01
      vertex -1.000000e+01 1.000000e+01 3.000000e+01
      vertex -3.535534e+00 1.000000e+01 2.153553e+01
    endloop
  endfacet
  facet normal 0.000000e+00 1.000000e+00 0.000000e+00
    outer loop
      vertex 0.000000e+00 1.000000e+01 2.300000e+01
      vertex -1.000000e+01 1.000000e+01 3.000000e+01
      vertex 1.913417e+00 1.000000e+01 2.261940e+01
    endloop
  endfacet
  facet normal 0.000000e+00 1.000000e+00 0.000000e+00
    outer loop
      vertex 4.619398e+00 1.000000e+01 1.991342e+01
      vertex 3.535534e+00 1.000000e+01 2.153553e+01
      vertex 1.000000e+01 1.000000e+01 3.000000e+01
    endloop
  endfacet
  facet normal 0.000000e+00 1.000000e+00 0.000000e+00
    outer loop
      vertex 3.535534e+00 1.000000e+01 2.153553e+01
      vertex 1.913417e+00 1.000000e+01 2.261940e+01
      vertex 1.000000e+01 1.000000e+01 3.000000e+01
    endloop
  endfacet
  facet normal 0.000000e+00 1.000000e+00 0.000000e+00
    outer loop
      vertex -1.913417e+00 1.000000e+01 2.261940e+01
      vertex -1.000000e+01 1.000000e+01 3.000000e+01
      vertex 0.000000e+00 1.000000e+01 2.300000e+01
    endloop
  endfacet
  facet normal 0.000000e+00 1.000000e+00 0.000000e+00
    outer loop
      vertex -3.535534e+00 1.000000e+01 2.153553e+01
      vertex -1.000000e+01 1.000000e+01 3.000000e+01
      vertex -1.913417e+00 1.000000e+01 2.261940e+01
    endloop
  endfacet
  facet normal 0.000000e+00 1.000000e+00 0.000000e+00
    outer loop
      vertex -5.000000e+00 1.000000e+01 1.800000e+01
      vertex -1.000000e+01 1.000000e+01 3.000000e+01
      vertex -4.619398e+00 1.000000e+01 1.991342e+01
    endloop
  endfacet
  facet normal 0.000000e+00 1.000000e+00 0.000000e+00
    outer loop
      vertex -1.913417e+00 1.000000e+01 1.338060e+01
      vertex 1.000000e+01 1.000000e+01 0.000000e+00
      vertex -3.535534e+00 1.000000e+01 1.446447e+01
    endloop
  endfacet
  facet normal 0.000000e+00 0.000000e+00 1.000000e+00
    outer loop
      vertex -1.000000e+01 1.000000e+01 3.000000e+01
      vertex -1.000000e+01 -1.000000e+01 3.000000e+01
      vertex 1.000000e+01 -1.000000e+01 3.000000e+01
    endloop
  endfacet
  facet normal 0.000000e+00 0.000000e+00 1.000000e+00
    outer loop
      vertex 1.000000e+01 1.000000e+01 3.000000e+01
      vertex -1.000000e+01 1.000000e+01 3.000000e+01
      vertex 1.000000e+01 -1.000000e+01 3.000000e+01
    endloop
  endfacet
  facet normal 1.000000e+00 0.000000e+00 0.000000e+00
    outer loop
      vertex 1.000000e+01 -1.000000e+01 3.000000e+01
      vertex 1.000000e+01 -1.000000e+01 0.000000e+00
      vertex 1.000000e+01 1.000000e+01 0.000000e+00
    endloop
  endfacet
  facet normal 1.000000e+00 0.000000e+00 0.000000e+00
    outer loop
      vertex 1.000000e+01 1.000000e+01 3.000000e+01
      vertex 1.000000e+01 -1.000000e+01 3.000000e+01
      vertex 1.000000e+01 1.000000e+01 0.000000e+00
    endloop
  endfacet
  facet normal 8.314699e-01 0.000000e+00 5.555699e-01
    outer loop
      vertex -3.535534e+00 -1.000000e+01 1.446447e+01
      vertex -3.535534e+00 1.000000e+01 1.446447e+01
      vertex -4.619398e+00 1.000000e+01 1.608658e+01
    endloop
  endfacet
  facet normal 8.314699e-01 0.000000e+00 5.555699e-01
    outer loop
      vertex -4.619398e+00 -1.000000e+01 1.608658e+01
      vertex -3.535534e+00 -1.000000e+01 1.446447e+01
      vertex -4.619398e+00 1.000000e+01 1.608658e+01
    endloop
  endfacet
  facet normal 9.807854e-01 0.000000e+00 1.950901e-01
    outer loop
      vertex -4.619398e+00 -1.000000e+01 1.608658e+01
      vertex -4.619398e+00 1.000000e+01 1.608658e+01
      vertex -5.000000e+00 1.000000e+01 1.800000e+01
    endloop
  endfacet
  facet normal 9.807854e-01 0.000000e+00 1.950901e-01
    outer loop
      vertex -5.000000e+00 -1.000000e+01 1.800000e+01
      vertex -4.619398e+00 -1.000000e+01 1.608658e+01
      vertex -5.000000e+00 1.000000e+01 1.800000e+01
    endloop
  endfacet
  facet normal 5.555699e-01 0.000000e+00 8.314699e-01
    outer loop
      vertex -1.913417e+00 -1.000000e+01 1.338060e+01
      vertex -1.913417e+00 1.000000e+01 1.338060e+01
      vertex -3.535534e+00 1.000000e+01 1.446447e+01
    endloop
  endfacet
  facet normal 5.555699e-01 0.000000e+00 8.314699e-01
    outer loop
      vertex -3.535534e+00 -1.000000e+01 1.446447e+01
      vertex -1.913417e+00 -1.000000e+01 1.338060e+01
      vertex -3.535534e+00 1.000000e+01 1.446447e+01
    endloop
  endfacet
  facet normal 1.950901e-01 0.000000e+00 9.807854e-01
    outer loop
      vertex 0.000000e+00 -1.000000e+01 1.300000e+01
      vertex 0.000000e+00 1.000000e+01 1.300000e+01
      vertex -1.913417e+00 1.000000e+01 1.338060e+01
    endloop
  endfacet
  facet normal 1.950901e-01 0.000000e+00 9.807854e-01
    outer loop
      vertex -1.913417e+00 -1.000000e+01 1.338060e+01
      vertex 0.000000e+00 -1.000000e+01 1.300000e+01
      vertex -1.913417e+00 1.000000e+01 1.338060e+01
    endloop
  endfacet
  facet normal -1.950901e-01 0.000000e+00 9.807854e-01
    outer loop
      vertex 1.913417e+00 -1.000000e+01 1.338060e+01
      vertex 1.913417e+00 1.000000e+01 1.338060e+01
      vertex 0.000000e+00 1.000000e+01 1.300000e+01
    endloop
  endfacet
  facet normal -1.950901e-01 0.000000e+00 9.807854e-01
    outer loop
      vertex 0.000000e+00 -1.000000e+01 1.300000e+01
      vertex 1.913417e+00 -1.000000e+01 1.338060e+01
      vertex 0.000000e+00 1.000000e+01 1.300000e+01
    endloop
  endfacet
  facet normal -5.555699e-01 0.000000e+00 8.314699e-01
    outer loop
      vertex 3.535534e+00 -1.000000e+01 1.446447e+01
      vertex 3.535534e+00 1.000000e+01 1.446447e+01
      vertex 1.913417e+00 1.000000e+01 1.338060e+01
    endloop
  endfacet
  facet normal -5.555699e-01 0.000000e+00 8.314699e-01
    outer loop
      vertex 1.913417e+00 -1.000000e+01 1.338060e+01
      vertex 3.535534e+00 -1.000000e+01 1.446447e+01
      vertex 1.913417e+00 1.000000e+01 1.338060e+01
    endloop
  endfacet
  facet normal -8.314699e-01 0.000000e+00 5.555699e-01
    outer loop
      vertex 4.619398e+00 1.000000e+01 1.608658e+01
      vertex 3.535534e+00 1.000000e+01 1.446447e+01
      vertex 4.619398e+00 -1.000000e+01 1.608658e+01
    endloop
  endfacet
  facet normal -8.314699e-01 0.000000e+00 5.555699e-01
    outer loop
      vertex 4.619398e+00 -1.000000e+01 1.608658e+01
      vertex 3.535534e+00 1.000000e+01 1.446447e+01
      vertex 3.535534e+00 -1.000000e+01 1.446447e+01
    endloop
  endfacet
  facet normal -9.807854e-01 0.000000e+00 1.950901e-01
    outer loop
      vertex 5.000000e+00 1.000000e+01 1.800000e+01
      vertex 4.619398e+00 1.000000e+01 1.608658e+01
      vertex 5.000000e+00 -1.000000e+01 1.800000e+01
    endloop
  endfacet
  facet normal -9.807854e-01 0.000000e+00 1.950901e-01
    outer loop
      vertex 5.000000e+00 -1.000000e+01 1.800000e+01
      vertex 4.619398e+00 1.000000e+01 1.608658e+01
      vertex 4.619398e+00 -1.000000e+01 1.608658e+01
    endloop
  endfacet
  facet normal -9.807854e-01 -0.000000e+00 -1.950901e-01
    outer loop
      vertex 5.000000e+00 1.000000e+01 1.800000e+01
      vertex 5.000000e+00 -1.000000e+01 1.800000e+01
      vertex 4.619398e+00 1.000000e+01 1.991342e+01
    endloop
  endfacet
  facet normal -9.807854e-01 -0.000000e+00 -1.950901e-01
    outer loop
      vertex 4.619398e+00 1.000000e+01 1.991342e+01
      vertex 5.000000e+00 -1.000000e+01 1.800000e+01
      vertex 4.619398e+00 -1.000000e+01 1.991342e+01
    endloop
  endfacet
  facet normal -8.314699e-01 -0.000000e+00 -5.555699e-01
    outer loop
      vertex 4.619398e+00 1.000000e+01 1.991342e+01
      vertex 4.619398e+00 -1.000000e+01 1.991342e+01
      vertex 3.535534e+00 1.000000e+01 2.153553e+01
    endloop
  endfacet
  facet normal -8.314699e-01 -0.000000e+00 -5.555699e-01
    outer loop
      vertex 3.535534e+00 1.000000e+01 2.153553e+01
      vertex 4.619398e+00 -1.000000e+01 1.991342e+01
      vertex 3.535534e+00 -1.000000e+01 2.153553e+01
    endloop
  endfacet
  facet normal -5.555699e-01 -0.000000e+00 -8.314699e-01
    outer loop
      vertex 3.535534e+00 1.000000e+01 2.153553e+01
      vertex 3.535534e+00 -1.000000e+01 2.153553e+01
      vertex 1.913417e+00 1.000000e+01 2.261940e+01
    endloop
  endfacet
  facet normal -5.555699e-01 -0.000000e+00 -8.314699e-01
    outer loop
      vertex 1.913417e+00 1.000000e+01 2.261940e+01
      vertex 3.535534e+00 -1.000000e+01 2.153553e+01
      vertex 1.913417e+00 -1.000000e+01 2.261940e+01
    endloop
  endfacet
  facet normal -1.950901e-01 -0.000000e+00 -9.807854e-01
    outer loop
      vertex 1.913417e+00 1.000000e+01 2.261940e+01
      vertex 1.913417e+00 -1.000000e+01 2.261940e+01
      vertex 0.000000e+00 1.000000e+01 2.300000e+01
    endloop
  endfacet
  facet normal -1.950901e-01 -0.000000e+00 -9.807854e-01
    outer loop
      vertex 0.000000e+00 1.000000e+01 2.300000e+01
      vertex 1.913417e+00 -1.000000e+01 2.261940e+01
      vertex 0.000000e+00 -1.000000e+01 2.300000e+01
    endloop
  endfacet
  facet normal 1.950901e-01 0.000000e+00 -9.807854e-01
    outer loop
      vertex 0.000000e+00 1.000000e+01 2.300000e+01
      vertex 0.000000e+00 -1.000000e+01 2.300000e+01
      vertex -1.913417e+00 1.000000e+01 2.261940e+01
    endloop
  endfacet
  facet normal 1.950901e-01 0.000000e+00 -9.807854e-01
    outer loop
      vertex -1.913417e+00 1.000000e+01 2.261940e+01
      vertex 0.000000e+00 -1.000000e+01 2.300000e+01
      vertex -1.913417e+00 -1.000000e+01 2.261940e+01
    endloop
  endfacet
  facet normal 5.555699e-01 0.000000e+00 -8.314699e-01
    outer loop
      vertex -1.913417e+00 1.000000e+01 2.261940e+01
      vertex -1.913417e+00 -1.000000e+01 2.261940e+01
      vertex -3.535534e+00 1.000000e+01 2.153553e+01
    endloop
  endfacet
  facet normal 5.555699e-01 0.000000e+00 -8.314699e-01
    outer loop
      vertex -3.535534e+00 1.000000e+01 2.153553e+01
      vertex -1.913417e+00 -1.000000e+01 2.261940e+01
      vertex -3.535534e+00 -1.000000e+01 2.153553e+01
    endloop
  endfacet
  facet normal 8.314699e-01 0.000000e+00 -5.555699e-01
    outer loop
      vertex -4.619398e+00 1.000000e+01 1.991342e+01
      vertex -3.535534e+00 1.000000e+01 2.153553e+01
      vertex -3.535534e+00 -1.000000e+01 2.153553e+01
    endloop
  endfacet
  facet normal 8.314699e-01 0.000000e+00 -5.555699e-01
    outer loop
      vertex -4.619398e+00 -1.000000e+01 1.991342e+01
      vertex -4.619398e+00 1.000000e+01 1.991342e+01
      vertex -3.535534e+00 -1.000000e+01 2.153553e+01
    endloop
  endfacet
  facet normal 9.807854e-01 0.000000e+00 -1.950901e-01
    outer loop
      vertex -5.000000e+00 1.000000e+01 1.800000e+01
      vertex -4.619398e+00 1.000000e+01 1.991342e+01
      vertex -4.619398e+00 -1.000000e+01 1.991342e+01
    endloop
  endfacet
  facet normal 9.807854e-01 0.000000e+00 -1.950901e-01
    outer loop
      vertex -5.000000e+00 -1.000000e+01 1.800000e+01
      vertex -5.000000e+00 1.000000e+01 1.800000e+01
      vertex -4.619398e+00 -1.000000e+01 1.991342e+01
    endloop
  endfacet
endsolid Default
